<svg width="345" height="81" viewBox="0 0 345 81" fill="none" xmlns="http://www.w3.org/2000/svg">
<path d="M92.1606 24.7881H103.835V56.7703H92.1606V24.7881ZM102.806 40.1388L108.109 32.2806C109.298 30.6961 109.975 29.2801 110.148 28.0324C110.319 26.7848 110.154 25.7011 109.653 24.7881H122.356L117.133 31.0019L111.908 38.9975L111.987 33.6967L120.06 50.1443L123.384 56.7703H110.286L102.806 40.1388Z" fill="url(#paint0_linear_407_1277)"/>
<path d="M153.5 24.7883V56.7706H144.872L130.031 34.5656L131.772 33.6969V46.5368C131.772 48.518 131.838 50.0027 131.97 50.9911C132.102 51.9817 132.371 52.8792 132.782 53.6858C133.191 54.4925 133.87 55.5207 134.82 56.7706H125.402V26.3418L124.53 24.7883H136.68L148.592 42.8825L147.128 45.9429V34.0626C147.128 32.2343 147.074 30.887 146.969 30.0183C146.863 29.1496 146.638 28.3584 146.297 27.6426C145.953 26.9268 145.347 25.9739 144.477 24.7861H153.5V24.7883Z" fill="url(#paint1_linear_407_1277)"/>
<path d="M163.848 55.6292C161.407 54.2575 159.514 52.2941 158.169 49.7345C156.823 47.175 156.151 44.1921 156.151 40.7794C156.151 37.3667 156.823 34.3838 158.169 31.8243C159.514 29.2647 161.407 27.3013 163.848 25.9296C166.288 24.5578 169.117 23.873 172.336 23.873C175.555 23.873 178.384 24.5578 180.824 25.9296C183.264 27.3013 185.158 29.2647 186.504 31.8243C187.849 34.3838 188.521 37.3689 188.521 40.7794C188.521 44.1899 187.849 47.175 186.504 49.7345C185.158 52.2941 183.264 54.2575 180.824 55.6292C178.384 57.001 175.553 57.6858 172.336 57.6858C169.119 57.6858 166.288 57.001 163.848 55.6292ZM175.267 48.7284C175.952 47.0221 176.296 44.3739 176.296 40.7772C176.296 37.1805 175.952 34.5323 175.267 32.8282C174.58 31.1218 173.605 30.2686 172.338 30.2686C171.071 30.2686 170.096 31.1218 169.409 32.8282C168.722 34.5345 168.38 37.1849 168.38 40.7772C168.38 44.3694 168.724 47.0221 169.409 48.7284C170.094 50.4348 171.071 51.288 172.338 51.288C173.605 51.288 174.58 50.4348 175.267 48.7284Z" fill="url(#paint2_linear_407_1277)"/>
<path d="M188.008 24.7876H203.6C203.177 25.9156 202.893 27.0724 202.749 28.2602C202.604 29.448 202.598 30.607 202.73 31.7328C202.888 33.1954 203.272 34.8707 203.878 36.7588C204.352 38.4652 205.039 40.4752 205.936 42.7909L204.947 43.797L211.477 24.3799H216.069L222.677 43.8436L221.608 42.9749C222.32 40.9339 222.861 39.2142 223.23 37.8115C223.572 36.5328 223.829 35.4979 224.002 34.7045C224.172 33.9134 224.324 32.9538 224.457 31.8259C224.562 30.5782 224.529 29.3749 224.357 28.2159C224.184 27.0591 223.862 25.9156 223.387 24.7899H234.073L223.23 57.1843H216.976L210.289 38.268H211.873L205.264 57.1843H198.972L188.01 24.7899L188.008 24.7876Z" fill="url(#paint3_linear_407_1277)"/>
<path d="M235.656 24.7881H247.33V56.7703H235.656V24.7881ZM246.461 37.6257H253.348V44.0678H246.461V37.6257ZM252.477 24.7881H264.151V56.7703H252.477V24.7881Z" fill="url(#paint4_linear_407_1277)"/>
<path d="M277.171 24.7883H286.549L298.223 56.7706H282.513C282.987 55.339 283.303 54.2199 283.463 53.4132C283.622 52.6066 283.607 51.503 283.422 50.1002C283.29 49.1252 283.132 48.2808 282.948 47.565C282.764 46.8493 282.486 45.9141 282.117 44.7551L278.357 32.4183L280.257 31.6404L276.695 44.159C276.167 45.7434 275.804 46.9224 275.606 47.7002C275.409 48.4781 275.257 49.2914 275.151 50.1445C274.967 51.4853 274.967 52.5822 275.151 53.4332C275.336 54.2864 275.626 55.3988 276.023 56.7684H265.733L277.171 24.7861V24.7883ZM273.608 44.9833H289.676L289.914 49.7346H273.213L273.608 44.9833Z" fill="url(#paint5_linear_407_1277)"/>
<path d="M299.807 24.7881H311.481V50.2839C314.7 49.8894 317.878 48.0302 321.018 44.7105V56.7725H299.807V24.7903V24.7881Z" fill="url(#paint6_linear_407_1277)"/>
<path d="M323.788 24.7881H335.462V50.2839C338.681 49.8894 341.86 48.0302 345 44.7105V56.7725H323.788V24.7903V24.7881Z" fill="url(#paint7_linear_407_1277)"/>
<path d="M52.6334 0L27.2199 28.5558V17.035L0 47.6206L28.9641 80.166L54.3776 51.6101V63.1309L81.5975 32.5454L52.6334 0ZM54.4398 48.5989V22.9495L28.9641 65.7006L12.8707 47.6174L27.2058 31.5067L27.6241 56.0095L52.6334 14.459L68.7268 32.5422L54.4398 48.5989Z" fill="url(#paint8_linear_407_1277)"/>
<defs>
<linearGradient id="paint0_linear_407_1277" x1="107.773" y1="24.7881" x2="107.773" y2="56.7703" gradientUnits="userSpaceOnUse">
<stop stop-color="#55F6C9"/>
<stop offset="1" stop-color="#8476D9"/>
</linearGradient>
<linearGradient id="paint1_linear_407_1277" x1="139.015" y1="24.7861" x2="139.015" y2="56.7706" gradientUnits="userSpaceOnUse">
<stop stop-color="#55F6C9"/>
<stop offset="1" stop-color="#8476D9"/>
</linearGradient>
<linearGradient id="paint2_linear_407_1277" x1="172.336" y1="23.873" x2="172.336" y2="57.6858" gradientUnits="userSpaceOnUse">
<stop stop-color="#55F6C9"/>
<stop offset="1" stop-color="#8476D9"/>
</linearGradient>
<linearGradient id="paint3_linear_407_1277" x1="211.041" y1="24.3799" x2="211.041" y2="57.1843" gradientUnits="userSpaceOnUse">
<stop stop-color="#55F6C9"/>
<stop offset="1" stop-color="#8476D9"/>
</linearGradient>
<linearGradient id="paint4_linear_407_1277" x1="249.904" y1="24.7881" x2="249.904" y2="56.7703" gradientUnits="userSpaceOnUse">
<stop stop-color="#55F6C9"/>
<stop offset="1" stop-color="#8476D9"/>
</linearGradient>
<linearGradient id="paint5_linear_407_1277" x1="281.978" y1="24.7861" x2="281.978" y2="56.7706" gradientUnits="userSpaceOnUse">
<stop stop-color="#55F6C9"/>
<stop offset="1" stop-color="#8476D9"/>
</linearGradient>
<linearGradient id="paint6_linear_407_1277" x1="310.412" y1="24.7881" x2="310.412" y2="56.7725" gradientUnits="userSpaceOnUse">
<stop stop-color="#55F6C9"/>
<stop offset="1" stop-color="#8476D9"/>
</linearGradient>
<linearGradient id="paint7_linear_407_1277" x1="334.394" y1="24.7881" x2="334.394" y2="56.7725" gradientUnits="userSpaceOnUse">
<stop stop-color="#55F6C9"/>
<stop offset="1" stop-color="#8476D9"/>
</linearGradient>
<linearGradient id="paint8_linear_407_1277" x1="40.7988" y1="0" x2="40.7988" y2="80.166" gradientUnits="userSpaceOnUse">
<stop stop-color="#55F6C9"/>
<stop offset="1" stop-color="#8476D9"/>
</linearGradient>
</defs>
</svg>
